# xmcd
#
# Track frame offsets:
#	150
#	18578
#	37883
#	55354
#	75931
#	95056
#	114669
#	131160
#	147159
#	164153
#	182782
#	201556
#	219094
#
# Disc length: 3158 seconds
#
# Revision: 0
# Processed by: cddbd v1.5.2PL0 Copyright (c) Steve Scherf et al.
# Submitted via: EZCDAudioConverter 1.1.0.1
#
DISCID=bd0c540d
DTITLE=群星 - 情迷薰衣草 [CD4]
DYEAR=2013
DGENRE=Musical
TTITLE0=范曉萱 - 眼淚
TTITLE1=王力宏 - 唯一
TTITLE2=齊秦 - 大約在冬季
TTITLE3=王菲、黃國倫 - 我願意
TTITLE4=許美靜 - 明知故犯
TTITLE5=王菲 - 執迷不悔
TTITLE6=王力宏 - 龍的傳人
TTITLE7=邰正宵 - 九佰九十九朵玫瑰
TTITLE8=陳淑樺 - 夢醒時份
TTITLE9=鄧麗君 - 恰你的溫柔
TTITLE10=曹格 - 無辜
TTITLE11=鄧麗君、王菲 - 但願人長久
TTITLE12=林憶蓮、李宗盛 - 當愛已成往事
EXTD=
EXTT0=
EXTT1=
EXTT2=
EXTT3=
EXTT4=
EXTT5=
EXTT6=
EXTT7=
EXTT8=
EXTT9=
EXTT10=
EXTT11=
EXTT12=
PLAYORDER=
